<svg width="375" height="305" viewBox="0 0 375 305" fill="none" xmlns="http://www.w3.org/2000/svg">
<g opacity="0.08">
<path d="M100.582 162.819L108.14 151.601L110.901 160.97L119.94 158.585L121.539 167.275L131.74 165.584L124.199 176.802L100.582 162.819Z" fill="white"/>
<path d="M124.197 177.908C123.978 177.908 123.759 177.845 123.574 177.735L99.9739 163.751C99.4184 163.419 99.2669 162.74 99.6035 162.219L107.145 151C107.397 150.637 107.852 150.431 108.306 150.495C108.761 150.558 109.148 150.874 109.266 151.3L111.707 159.612L119.618 157.526C119.938 157.447 120.292 157.494 120.561 157.652C120.847 157.826 121.032 158.095 121.1 158.395L122.497 165.995L131.536 164.494C131.991 164.415 132.462 164.604 132.714 164.968C132.967 165.331 132.984 165.805 132.731 166.169L125.19 177.387C124.971 177.719 124.584 177.908 124.197 177.908ZM102.213 162.471L123.826 175.27L129.314 167.101L121.739 168.365C121.436 168.412 121.116 168.349 120.864 168.175C120.611 168.002 120.426 167.749 120.376 167.464L118.995 159.975L111.202 162.029C110.899 162.108 110.579 162.076 110.309 161.934C110.04 161.792 109.838 161.555 109.754 161.271L107.7 154.303L102.213 162.471Z" fill="white"/>
<path d="M28.3307 31.9121C28.1119 31.4855 27.9941 30.5533 27.9941 30.5533L26.2266 8.08496L43.1776 24.0277L43.1439 24.0435C43.5143 24.3595 43.8509 24.7229 44.0698 25.1495C45.3491 27.7566 42.8578 31.3907 38.5148 33.2551C34.155 35.1196 29.5932 34.5192 28.3307 31.9121Z" fill="white"/>
<path d="M33.5 35.4513C30.6215 35.4513 28.248 34.3768 27.2717 32.3702C27.0024 31.8172 26.8677 30.9481 26.834 30.6795L25.0497 8.16385C25.016 7.70564 25.2854 7.26323 25.7399 7.07362C26.1944 6.88401 26.7162 6.96302 27.0697 7.29483L44.0207 23.2375C44.088 23.3007 44.1385 23.3639 44.189 23.4429C44.6099 23.8379 44.9129 24.2487 45.1317 24.6912C45.9229 26.3028 45.6535 28.2147 44.3742 30.0791C43.2127 31.7856 41.2937 33.2708 38.9876 34.2504C37.1023 35.0721 35.2169 35.4513 33.5 35.4513ZM29.4095 31.438C30.3858 33.4446 34.3248 33.8238 38.0113 32.2438C39.9134 31.4222 41.4621 30.2371 42.3879 28.8783C43.2127 27.6774 43.4315 26.5082 42.977 25.6076C42.8592 25.3706 42.6572 25.1178 42.3374 24.8492C42.2532 24.7702 42.1691 24.6754 42.1017 24.5806L27.6252 10.9605L29.157 30.4425C29.2075 30.7585 29.3253 31.28 29.4095 31.438Z" fill="white"/>
<path d="M33.8905 23.8063C38.2335 21.9419 42.7785 22.5423 44.0578 25.1494C45.3371 27.7565 42.8458 31.3906 38.5028 33.255C34.1599 35.1195 29.6149 34.5191 28.3356 31.912C27.0563 29.2891 29.5476 25.6708 33.8905 23.8063Z" fill="white"/>
<path d="M33.5029 35.4355C33.0148 35.4355 32.5435 35.4039 32.089 35.3407C29.766 35.0247 28.0322 33.9661 27.2578 32.3544C26.4667 30.7428 26.736 28.8309 28.0153 26.9664C29.1768 25.26 31.0958 23.7747 33.4019 22.7951C38.4182 20.6462 43.5692 21.4837 45.1347 24.6912C46.7002 27.8987 44.0069 32.1016 38.9906 34.2505C37.1726 35.0405 35.2704 35.4355 33.5029 35.4355ZM34.3783 24.8176C32.4761 25.6392 30.9275 26.8242 30.0016 28.1831C29.1768 29.3839 28.958 30.5531 29.4125 31.4538C29.8501 32.3544 30.9275 32.9706 32.4425 33.176C34.1426 33.3972 36.1289 33.0812 38.0142 32.2596C41.7007 30.6796 43.9732 27.6459 42.9969 25.6234C42.0037 23.6009 38.0647 23.2375 34.3783 24.8176Z" fill="white"/>
<path d="M353.567 254.43L342.104 250.796L339.73 239.673L348.787 232.183L360.25 235.802L362.64 246.925L353.567 254.43Z" fill="white"/>
<path d="M353.568 255.536C353.434 255.536 353.316 255.52 353.198 255.473L341.735 251.855C341.331 251.728 341.044 251.412 340.96 251.017L338.57 239.894C338.486 239.499 338.637 239.104 338.94 238.851L348.013 231.346C348.333 231.077 348.771 230.998 349.175 231.124L360.638 234.743C361.042 234.869 361.328 235.185 361.413 235.58L363.803 246.704C363.887 247.099 363.736 247.494 363.433 247.747L354.359 255.252C354.124 255.441 353.838 255.536 353.568 255.536ZM343.132 249.959L353.299 253.182L361.345 246.53L359.224 236.655L349.057 233.431L341.011 240.083L343.132 249.959Z" fill="white"/>
<path d="M353.568 255.536C353.013 255.536 352.524 255.173 352.407 254.652L350.151 244.16L339.344 240.747C338.721 240.557 338.401 239.925 338.603 239.341C338.805 238.756 339.479 238.456 340.101 238.646L351.565 242.264C351.969 242.39 352.255 242.706 352.339 243.101L354.73 254.225C354.864 254.825 354.443 255.41 353.804 255.521C353.72 255.521 353.635 255.536 353.568 255.536Z" fill="white"/>
<path d="M351.176 244.413C350.856 244.413 350.519 244.286 350.283 244.033C349.846 243.575 349.896 242.88 350.384 242.469L359.457 234.964C359.946 234.569 360.686 234.601 361.124 235.059C361.562 235.517 361.511 236.212 361.023 236.623L351.95 244.128C351.731 244.318 351.462 244.413 351.176 244.413Z" fill="white"/>
<path d="M211.509 202.51L211.526 202.541C211.661 202.399 211.795 202.257 211.947 202.131C212.149 201.957 212.351 201.799 212.603 201.672C212.805 201.578 213.092 201.499 213.361 201.435C213.479 201.404 213.613 201.372 213.731 201.356C213.849 201.325 213.95 201.309 213.95 201.309L214.506 201.325C214.59 201.325 214.674 201.325 214.775 201.341L229.891 201.83L221.744 213.791C221.693 213.87 221.643 213.934 221.592 214.013L221.289 214.455L221.272 214.423C221.138 214.566 221.003 214.708 220.852 214.834C220.65 215.008 220.448 215.166 220.195 215.292C219.993 215.387 219.69 215.466 219.421 215.529C219.303 215.561 219.185 215.593 219.051 215.608C218.933 215.64 218.832 215.656 218.832 215.656L218.276 215.64C218.192 215.64 218.108 215.64 218.007 215.624L202.891 215.134L211.038 203.173C211.088 203.094 211.139 203.031 211.189 202.952L211.509 202.51Z" fill="white"/>
<path d="M218.85 216.73C218.833 216.73 218.816 216.73 218.816 216.73L218.261 216.714C218.092 216.714 217.991 216.714 217.89 216.699L202.892 216.225C202.471 216.209 202.084 215.988 201.882 215.64C201.68 215.292 201.697 214.866 201.933 214.534L210.08 202.573C210.08 202.557 210.181 202.431 210.181 202.431L210.517 201.925C210.602 201.799 210.719 201.688 210.837 201.609C210.938 201.514 211.039 201.404 211.157 201.325C211.325 201.167 211.628 200.93 212.032 200.724C212.032 200.724 212.049 200.724 212.049 200.709C212.302 200.582 212.622 200.472 213.076 200.377C213.295 200.314 213.446 200.282 213.581 200.266L213.716 200.235C213.8 200.219 213.918 200.203 213.985 200.219L214.541 200.235C214.709 200.235 214.81 200.235 214.894 200.25L229.909 200.74C230.33 200.756 230.717 200.977 230.919 201.325C231.121 201.672 231.104 202.099 230.869 202.431L222.722 214.376C222.722 214.376 222.671 214.455 222.621 214.534L222.284 215.024C222.2 215.15 222.082 215.261 221.964 215.34C221.863 215.45 221.762 215.545 221.644 215.64C221.392 215.877 221.122 216.067 220.819 216.209C220.786 216.225 220.752 216.24 220.735 216.256C220.5 216.367 220.18 216.477 219.742 216.588C219.523 216.651 219.389 216.667 219.237 216.699L219.086 216.73C219.001 216.73 218.917 216.73 218.85 216.73ZM205.03 214.076L218.076 214.502L218.294 215.624L218.328 214.518L218.749 214.534L219.035 214.471C219.422 214.376 219.574 214.329 219.624 214.297C219.641 214.281 219.658 214.281 219.675 214.265C219.776 214.218 219.894 214.123 220.045 213.997C220.18 213.886 220.264 213.791 220.348 213.697C220.382 213.665 220.415 213.618 220.449 213.586L220.584 213.396L220.685 213.428C220.735 213.396 220.803 213.365 220.87 213.349L220.702 213.254L227.771 202.857L214.726 202.431L214.507 201.309L214.473 202.415L214.052 202.399L213.766 202.462C213.345 202.557 213.194 202.62 213.16 202.636C213.16 202.636 213.143 202.636 213.143 202.652C213.026 202.715 212.908 202.794 212.756 202.936C212.622 203.047 212.537 203.142 212.453 203.237C212.42 203.268 212.386 203.316 212.352 203.347L212.218 203.537L212.133 203.505C212.066 203.537 212.016 203.568 211.948 203.584L212.133 203.695L205.03 214.076Z" fill="white"/>
<path d="M218.513 216.746C217.453 216.746 216.342 216.446 215.214 215.845C213.429 214.897 211.83 213.27 210.702 211.263C209.591 209.257 209.07 207.108 209.238 205.18C209.423 203.079 210.416 201.483 212.032 200.693C212.605 200.408 213.328 200.614 213.631 201.151C213.934 201.688 213.716 202.368 213.143 202.652C211.965 203.237 211.679 204.611 211.611 205.37C211.477 206.871 211.898 208.609 212.807 210.236C213.716 211.864 214.995 213.175 216.392 213.918C217.099 214.297 218.479 214.85 219.658 214.265C220.23 213.981 220.937 214.186 221.257 214.739C221.56 215.277 221.341 215.94 220.769 216.24C220.062 216.588 219.304 216.746 218.513 216.746Z" fill="white"/>
<path d="M21.7501 219.669L28.113 198.117L19.1073 201.325L17.4745 189.095L11.0273 210.379L19.8479 207.234L21.7501 219.669Z" fill="white"/>
<path d="M21.7533 220.775C21.7196 220.775 21.7028 220.775 21.6691 220.775C21.1136 220.744 20.6591 220.349 20.575 219.827L18.8917 208.767L11.4345 211.421C11.0137 211.579 10.5424 211.484 10.2226 211.2C9.90272 210.916 9.76806 210.489 9.88589 210.078L16.3498 188.795C16.5013 188.289 17.0232 187.958 17.5787 187.989C18.1342 188.037 18.5886 188.432 18.656 188.953L20.0868 199.792L27.6954 197.09C28.1162 196.948 28.5876 197.027 28.9074 197.311C29.2272 197.596 29.3619 198.022 29.2441 198.433L22.8811 219.985C22.7465 220.443 22.2751 220.775 21.7533 220.775ZM19.8511 206.128C20.0531 206.128 20.272 206.175 20.4571 206.286C20.7601 206.46 20.979 206.744 21.0295 207.076L22.1236 214.281L26.3656 199.934L19.5145 202.368C19.1778 202.494 18.7906 202.447 18.4877 202.289C18.1847 202.115 17.9658 201.815 17.9322 201.483L17.0232 194.657L12.798 208.577L19.4303 206.223C19.565 206.16 19.7165 206.128 19.8511 206.128Z" fill="white"/>
<path d="M172.074 175.854C172.074 175.854 170.575 172.141 168.303 166.832C165.929 161.302 168.808 157.479 172.461 156.767C176.568 155.962 179.093 159.232 179.632 162.645C182.982 161.176 187.274 161.365 188.823 165.031C190.203 168.302 188.385 172.647 182.174 173.848C176.198 174.985 172.074 175.854 172.074 175.854Z" fill="white"/>
<path d="M172.071 176.96C171.583 176.96 171.145 176.676 170.977 176.249C170.977 176.249 169.479 172.536 167.206 167.243C165.944 164.288 165.944 161.444 167.223 159.217C168.267 157.384 170.085 156.104 172.223 155.677C174.058 155.314 175.808 155.63 177.273 156.578C178.788 157.557 179.916 159.185 180.505 161.144C182.558 160.528 184.629 160.528 186.346 161.16C187.995 161.776 189.241 162.977 189.931 164.62C190.739 166.532 190.605 168.665 189.544 170.482C188.265 172.71 185.723 174.274 182.407 174.922C176.465 176.06 172.341 176.929 172.341 176.945C172.24 176.96 172.155 176.96 172.071 176.96ZM173.687 157.747C173.367 157.747 173.031 157.779 172.694 157.842C171.246 158.126 170.001 159.011 169.294 160.259C168.351 161.903 168.385 164.099 169.395 166.422C171.011 170.182 172.24 173.153 172.812 174.575C174.377 174.243 177.694 173.563 181.936 172.758C184.562 172.252 186.514 171.083 187.474 169.439C188.197 168.191 188.282 166.738 187.743 165.442C187.288 164.367 186.531 163.625 185.47 163.23C184.006 162.677 182.02 162.835 180.134 163.656C179.798 163.799 179.411 163.799 179.074 163.625C178.754 163.467 178.518 163.167 178.468 162.819C178.165 160.907 177.205 159.248 175.909 158.411C175.253 157.968 174.512 157.747 173.687 157.747Z" fill="white"/>
<path d="M123.305 114.833C118.003 114.833 113.626 110.851 113.491 105.843C113.357 100.755 117.666 96.536 123.069 96.4096C125.712 96.3306 128.187 97.247 130.072 98.9535C131.974 100.644 133.052 102.935 133.119 105.4C133.254 110.488 128.961 114.707 123.541 114.833C123.473 114.833 123.389 114.833 123.305 114.833ZM123.305 98.6217C123.238 98.6217 123.187 98.6217 123.12 98.6217C121.134 98.6691 119.265 99.4433 117.902 100.786C116.521 102.145 115.798 103.915 115.848 105.795C115.949 109.65 119.332 112.732 123.49 112.621C127.598 112.526 130.863 109.303 130.762 105.448C130.678 101.64 127.345 98.6217 123.305 98.6217Z" fill="white"/>
<path d="M77.6878 141.757C77.4858 141.757 77.2838 141.71 77.0986 141.615C74.2706 140.098 72.2338 137.649 71.3585 134.694C70.5 131.74 70.904 128.659 72.5031 126.004C74.1191 123.35 76.7283 121.438 79.8761 120.616C83.0239 119.794 86.3064 120.189 89.1343 121.69C89.7067 121.991 89.8918 122.67 89.572 123.192C89.2522 123.729 88.5283 123.903 87.9729 123.602C85.6835 122.386 83.0239 122.07 80.4989 122.733C77.9739 123.397 75.8529 124.93 74.5568 127.078C71.8803 131.503 73.53 137.159 78.2601 139.671C78.8324 139.972 79.0176 140.651 78.6978 141.172C78.4958 141.552 78.0918 141.757 77.6878 141.757Z" fill="white"/>
<path d="M144.516 217.836C144.381 217.836 144.247 217.821 144.112 217.773C143.506 217.568 143.186 216.936 143.405 216.351C145.021 212.132 148.303 208.751 152.629 206.839C156.956 204.927 161.82 204.722 166.315 206.239C166.921 206.444 167.241 207.076 167.022 207.661C166.803 208.23 166.13 208.53 165.507 208.324C161.602 207.013 157.376 207.187 153.623 208.846C149.869 210.505 147.024 213.444 145.61 217.11C145.442 217.552 145.004 217.836 144.516 217.836Z" fill="white"/>
<path d="M360.318 26.9033C359.93 26.9033 359.543 26.7137 359.324 26.3819L346.009 6.67866C345.656 6.15724 345.824 5.47782 346.38 5.14601C346.935 4.8142 347.659 4.97221 348.013 5.49362L361.328 25.1968C361.681 25.7182 361.513 26.3977 360.957 26.7295C360.755 26.8559 360.536 26.9033 360.318 26.9033Z" fill="white"/>
<path d="M78.597 193.598C78.4119 193.598 78.2267 193.551 78.0415 193.472L58.9527 183.881C58.3803 183.597 58.1615 182.917 58.4645 182.38C58.7675 181.843 59.4913 181.637 60.0637 181.922L79.1525 191.513C79.7248 191.797 79.9437 192.477 79.6407 193.014C79.4218 193.377 79.0179 193.598 78.597 193.598Z" fill="white"/>
<path d="M63.9339 197.754C63.7488 197.754 63.5636 197.706 63.3785 197.627C62.8061 197.343 62.5873 196.664 62.8903 196.126L73.108 178.209C73.411 177.671 74.1349 177.466 74.7072 177.75C75.2795 178.035 75.4984 178.714 75.1954 179.252L64.9776 197.169C64.7588 197.533 64.3548 197.754 63.9339 197.754Z" fill="white"/>
<path d="M107.165 218.058C106.879 218.058 106.609 217.963 106.374 217.773C105.886 217.362 105.852 216.667 106.273 216.209L110.245 212.038C110.683 211.579 111.424 211.532 111.912 211.943C112.4 212.354 112.434 213.049 112.013 213.507L108.04 217.678C107.821 217.931 107.485 218.058 107.165 218.058Z" fill="white"/>
<path d="M94.0164 231.883C93.7303 231.883 93.4609 231.788 93.2253 231.598C92.7371 231.188 92.7034 230.492 93.1243 230.034L97.0969 225.863C97.5346 225.405 98.2752 225.373 98.7634 225.768C99.2516 226.179 99.2852 226.874 98.8644 227.332L94.8918 231.504C94.6561 231.756 94.3363 231.883 94.0164 231.883Z" fill="white"/>
<path d="M115.16 225.342C115.076 225.342 114.992 225.342 114.924 225.326L109.083 224.188C108.444 224.062 108.04 223.477 108.174 222.877C108.309 222.276 108.932 221.897 109.571 222.024L115.413 223.161C116.052 223.288 116.456 223.872 116.322 224.473C116.204 224.978 115.716 225.342 115.16 225.342Z" fill="white"/>
<path d="M95.8359 221.565C95.7517 221.565 95.6675 221.565 95.6002 221.55L89.7591 220.412C89.1194 220.285 88.7154 219.701 88.8501 219.1C88.9848 218.5 89.6076 218.121 90.2473 218.247L96.0884 219.385C96.728 219.511 97.132 220.096 96.9974 220.696C96.8795 221.202 96.3914 221.565 95.8359 221.565Z" fill="white"/>
<path d="M106.61 234.348C106.121 234.348 105.65 234.048 105.482 233.59L103.613 228.265C103.411 227.68 103.748 227.064 104.371 226.874C104.994 226.685 105.65 227.001 105.852 227.585L107.721 232.91C107.923 233.495 107.586 234.111 106.963 234.301C106.845 234.316 106.727 234.348 106.61 234.348Z" fill="white"/>
<path d="M100.43 216.746C99.9417 216.746 99.4704 216.446 99.3021 215.988L97.4336 210.663C97.2316 210.078 97.5683 209.462 98.1911 209.273C98.8139 209.083 99.4704 209.399 99.6724 209.984L101.541 215.308C101.743 215.893 101.406 216.509 100.783 216.699C100.666 216.73 100.548 216.746 100.43 216.746Z" fill="white"/>
<path d="M51.48 96.9626C51.4463 96.9626 51.4127 96.9626 51.379 96.9626C50.7393 96.8994 50.2512 96.3622 50.3185 95.7617L51.8672 79.9455L35.0003 78.4918C34.3606 78.4286 33.8725 77.8914 33.9398 77.291C34.0071 76.6748 34.5626 76.2324 35.2191 76.2956L53.2475 77.844C53.8871 77.9072 54.3753 78.4444 54.308 79.0448L52.6583 95.9672C52.6078 96.536 52.086 96.9626 51.48 96.9626Z" fill="white"/>
<path d="M300.477 68.0004C300.376 68.0004 300.275 67.9846 300.174 67.9688L286.707 64.6191C286.32 64.5243 286.017 64.2557 285.882 63.8923C285.764 63.5447 285.832 63.1496 286.084 62.8494L292.919 54.807L281.186 51.8839C280.563 51.7259 280.176 51.1255 280.344 50.5251C280.512 49.9404 281.135 49.577 281.792 49.735L295.258 53.0847C295.646 53.1795 295.949 53.4481 296.083 53.8116C296.201 54.1592 296.134 54.5542 295.881 54.8544L289.047 62.8968L300.78 65.8199C301.402 65.9779 301.79 66.5783 301.621 67.1788C301.47 67.6686 300.998 68.0004 300.477 68.0004Z" fill="white"/>
<path d="M166.737 131.329C166.467 131.329 166.198 131.25 165.979 131.076L156.502 123.666C155.997 123.271 155.93 122.575 156.35 122.101C156.771 121.627 157.512 121.564 158.017 121.959L166.585 128.674L173.739 120.632C174.16 120.158 174.901 120.095 175.406 120.49L183.974 127.205L191.128 119.162C191.549 118.688 192.289 118.625 192.794 119.02C193.299 119.415 193.367 120.11 192.946 120.584L185.051 129.48C184.63 129.954 183.89 130.017 183.385 129.622L174.817 122.907L167.662 130.95C167.41 131.202 167.073 131.329 166.737 131.329Z" fill="white"/>
<path d="M12.796 166.121C12.2405 166.121 11.7523 165.758 11.6345 165.236C11.4998 164.636 11.9207 164.051 12.5603 163.941L23.4514 161.903L21.2799 151.68C21.1452 151.079 21.5661 150.495 22.2057 150.384L33.0968 148.346L30.9253 138.123C30.7907 137.522 31.2115 136.938 31.8512 136.827L42.7422 134.789L40.5708 124.566C40.4361 123.966 40.8569 123.381 41.4966 123.27C42.1362 123.144 42.7591 123.539 42.8769 124.139L45.284 135.453C45.4187 136.053 44.9979 136.638 44.3582 136.748L33.4671 138.786L35.6386 149.009C35.7733 149.61 35.3525 150.194 34.7128 150.305L23.8217 152.343L25.9932 162.566C26.1279 163.167 25.707 163.751 25.0674 163.862L13.0148 166.121C12.9475 166.121 12.8801 166.121 12.796 166.121Z" fill="white"/>
<path d="M244.455 162.456C244.354 162.456 244.253 162.44 244.152 162.424L227.807 158.348C227.184 158.19 226.797 157.589 226.965 156.989L231.308 141.646C231.392 141.362 231.594 141.125 231.864 140.967C232.133 140.825 232.453 140.777 232.756 140.856L249.101 144.933C249.724 145.091 250.111 145.691 249.943 146.292L245.6 161.634C245.448 162.14 244.977 162.456 244.455 162.456ZM229.558 156.483L243.63 159.991L247.367 146.782L233.295 143.274L229.558 156.483Z" fill="white"/>
<path d="M323.891 214.708C323.52 214.708 323.15 214.629 322.813 214.455C321.669 213.886 321.231 212.559 321.82 211.485C322.106 210.963 322.595 210.584 323.201 210.41C323.807 210.236 324.429 210.284 324.985 210.552C325.54 210.821 325.944 211.279 326.13 211.848C326.315 212.401 326.264 213.001 325.978 213.523C325.557 214.281 324.749 214.708 323.891 214.708ZM323.891 212.496V212.512L324.934 213.001L323.891 212.496Z" fill="white"/>
<path d="M337.996 75.7268L327.492 66.7995L337.811 65.8357L336.835 57.019H346.228L346.16 47.2385L356.664 56.1658L337.996 75.7268Z" fill="white"/>
<path d="M337.998 76.8328C337.712 76.8328 337.426 76.738 337.207 76.5484L326.703 67.6212C326.35 67.321 326.232 66.8627 326.367 66.4519C326.518 66.0411 326.905 65.7409 327.377 65.6935L336.5 64.8403L335.642 57.1296C335.608 56.8136 335.709 56.5134 335.945 56.2764C336.164 56.0394 336.483 55.913 336.82 55.913H345.035L344.984 47.2385C344.984 46.7961 345.254 46.4011 345.691 46.2273C346.112 46.0535 346.617 46.1167 346.954 46.4169L357.458 55.3442C357.946 55.755 357.979 56.4502 357.542 56.9084L338.874 76.4694C338.672 76.6906 338.369 76.817 338.049 76.8328C338.049 76.8328 338.032 76.8328 337.998 76.8328ZM330.255 67.6528L337.914 74.1626L355 56.2448L347.358 49.735L347.408 57.0032C347.408 57.3034 347.29 57.5879 347.071 57.7933C346.853 57.9987 346.55 58.1251 346.23 58.1251H338.15L338.992 65.7251C339.025 66.0253 338.924 66.3097 338.739 66.5467C338.537 66.7679 338.251 66.9259 337.948 66.9417L330.255 67.6528Z" fill="white"/>
<path d="M361.999 183.944C361.932 183.944 361.881 183.944 361.814 183.928L346.159 181.558C345.722 181.495 345.351 181.195 345.217 180.8L340.419 166.611C340.301 166.248 340.385 165.837 340.655 165.552C340.924 165.268 341.328 165.126 341.732 165.189L357.387 167.575C357.825 167.638 358.178 167.938 358.313 168.333L363.11 182.522C363.228 182.886 363.144 183.296 362.875 183.581C362.673 183.802 362.336 183.944 361.999 183.944ZM347.253 179.488L360.299 181.464L356.293 169.629L343.247 167.654L347.253 179.488Z" fill="white"/>
<path d="M237.925 29.4471L263.41 26.366C265.194 26.1448 266.928 28.0883 267.282 30.7112C267.635 33.3182 266.491 35.6251 264.706 35.8305L239.221 38.9116C237.437 39.1328 235.703 37.1894 235.349 34.5665C234.996 31.9594 236.14 29.6683 237.925 29.4471Z" fill="white"/>
<path d="M238.95 40.0492C236.644 40.0492 234.607 37.8055 234.17 34.7245C233.968 33.255 234.17 31.8014 234.759 30.6479C235.415 29.3523 236.51 28.5149 237.772 28.3569L263.258 25.2758C265.732 24.9914 268.004 27.2982 268.459 30.5689C268.661 32.0384 268.459 33.492 267.87 34.6455C267.213 35.9411 266.119 36.7785 264.857 36.9365L239.371 40.0176C239.237 40.0334 239.085 40.0492 238.95 40.0492ZM263.678 27.4562C263.645 27.4562 263.594 27.4562 263.561 27.4562L238.075 30.5373C237.637 30.5847 237.2 30.9639 236.897 31.5802C236.51 32.3544 236.375 33.3814 236.51 34.4242C236.796 36.5099 238.092 37.9162 239.068 37.8214L264.554 34.7403C264.991 34.6929 265.429 34.3136 265.732 33.6974C266.119 32.9232 266.254 31.8962 266.119 30.8533C265.85 28.8467 264.638 27.4562 263.678 27.4562Z" fill="white"/>
<path d="M267.296 30.7111C267.65 33.334 266.505 35.625 264.721 35.8305C262.936 36.0517 261.203 34.1082 260.849 31.4853C260.496 28.8624 261.64 26.5714 263.425 26.366C265.209 26.1606 266.943 28.104 267.296 30.7111Z" fill="white"/>
<path d="M264.45 36.9681C263.323 36.9681 262.212 36.4309 261.336 35.4513C260.461 34.4716 259.872 33.1128 259.67 31.6434C259.468 30.1739 259.67 28.7203 260.259 27.5668C260.915 26.2712 262.01 25.4338 263.272 25.2758C265.747 24.9914 268.019 27.2982 268.474 30.5689C268.676 32.0384 268.474 33.492 267.884 34.6455C267.228 35.9411 266.134 36.7785 264.871 36.9365C264.737 36.9523 264.585 36.9681 264.45 36.9681ZM263.676 27.4562C263.642 27.4562 263.592 27.4562 263.558 27.4562C263.121 27.5036 262.683 27.8828 262.38 28.4991C261.993 29.2733 261.858 30.3003 261.993 31.3432C262.144 32.386 262.548 33.3498 263.137 34.0134C263.592 34.5348 264.131 34.8035 264.551 34.7403C264.989 34.6929 265.427 34.3136 265.73 33.6974C266.117 32.9232 266.252 31.8962 266.117 30.8533C265.848 28.8467 264.636 27.4562 263.676 27.4562Z" fill="white"/>
<path d="M296.47 141.599C296.908 141.362 297.884 141.188 297.884 141.188L321.485 137.839L305.914 154.84L305.897 154.808C305.594 155.187 305.241 155.519 304.786 155.74C302.126 157.115 298.103 155.077 295.814 151.174C293.525 147.271 293.811 142.989 296.47 141.599Z" fill="white"/>
<path d="M302.951 157.273C302.396 157.273 301.807 157.194 301.218 157.036C298.76 156.372 296.353 154.382 294.787 151.711C292.128 147.208 292.616 142.342 295.898 140.635C296.454 140.351 297.38 140.161 297.649 140.098L321.3 136.748C321.788 136.685 322.276 136.906 322.512 137.301C322.747 137.712 322.697 138.202 322.377 138.565L306.806 155.567C306.739 155.63 306.671 155.693 306.604 155.74C306.217 156.167 305.813 156.483 305.358 156.704C304.635 157.083 303.827 157.273 302.951 157.273ZM297.043 142.579C294.989 143.653 294.905 147.335 296.858 150.653C298.12 152.802 300.039 154.429 301.891 154.935C302.514 155.108 303.423 155.219 304.248 154.792C304.5 154.666 304.736 154.461 304.988 154.145C305.072 154.05 305.157 153.971 305.258 153.908L318.539 139.403L298.087 142.31C297.75 142.342 297.211 142.484 297.043 142.579Z" fill="white"/>
<path d="M305.461 146.165C307.767 150.068 307.464 154.35 304.805 155.74C302.145 157.115 298.122 155.077 295.833 151.174C293.526 147.271 293.829 142.989 296.489 141.599C299.132 140.224 303.155 142.263 305.461 146.165Z" fill="white"/>
<path d="M302.951 157.273C302.396 157.273 301.807 157.194 301.218 157.036C298.76 156.373 296.353 154.382 294.787 151.711C292.128 147.208 292.616 142.342 295.898 140.635C297.548 139.782 299.602 139.877 301.655 140.935C303.541 141.899 305.257 143.574 306.486 145.644C309.146 150.147 308.658 155.014 305.375 156.72C304.635 157.084 303.827 157.273 302.951 157.273ZM298.322 142.279C297.851 142.279 297.413 142.373 297.043 142.579C294.989 143.637 294.905 147.335 296.841 150.653C298.103 152.802 300.022 154.429 301.874 154.935C302.497 155.109 303.406 155.219 304.231 154.793C306.284 153.734 306.369 150.037 304.433 146.718C303.423 145.012 302.042 143.653 300.544 142.895C299.753 142.484 298.996 142.279 298.322 142.279Z" fill="white"/>
<path d="M127.077 49.7349L139.415 48.9291L146.317 58.5516L140.913 68.9799L128.575 69.7857L121.656 60.1632L127.077 49.7349Z" fill="white"/>
<path d="M128.574 70.8918C128.187 70.8918 127.817 70.7022 127.598 70.402L120.68 60.7795C120.444 60.4477 120.41 60.0369 120.595 59.6735L126.016 49.2452C126.201 48.8817 126.571 48.6605 126.992 48.6289L139.331 47.8231C139.768 47.7915 140.156 47.9811 140.391 48.3129L147.31 57.9354C147.545 58.2672 147.579 58.6781 147.394 59.0415L141.974 69.4698C141.788 69.8332 141.418 70.0544 140.997 70.086L128.658 70.8918C128.625 70.8918 128.608 70.8918 128.574 70.8918ZM123.019 60.0685L129.18 68.6324L140.156 67.9055L144.987 58.6148L138.826 50.051L127.85 50.7778L123.019 60.0685Z" fill="white"/>
<path d="M133.997 60.4635C133.61 60.4635 133.239 60.2739 133.02 59.9737L126.102 50.3512C125.732 49.8456 125.883 49.1504 126.422 48.8185C126.961 48.4867 127.701 48.6131 128.055 49.1188L134.586 58.204L146.235 57.4456C146.891 57.3982 147.447 57.8564 147.497 58.4726C147.548 59.0889 147.059 59.6103 146.403 59.6577L134.064 60.4635C134.047 60.4635 134.014 60.4635 133.997 60.4635Z" fill="white"/>
<path d="M128.573 70.8918C128.404 70.8918 128.219 70.8602 128.051 70.7812C127.462 70.5126 127.226 69.849 127.512 69.296L132.932 58.8676C133.218 58.3146 133.925 58.0934 134.515 58.362C135.104 58.6306 135.339 59.2942 135.053 59.8473L129.633 70.2756C129.431 70.6706 129.01 70.8918 128.573 70.8918Z" fill="white"/>
<path d="M1.13176 109.571L1.0981 109.54C1.03076 109.714 0.946598 109.872 0.845599 110.03C0.710933 110.235 0.576267 110.44 0.391102 110.614C0.239603 110.756 -0.0128963 110.914 -0.231728 111.041C-0.332727 111.104 -0.433724 111.167 -0.551556 111.215C-0.652555 111.262 -0.736722 111.309 -0.736722 111.309L-1.24172 111.436C-1.32588 111.452 -1.39322 111.483 -1.49422 111.499L-15.3984 115.007L-11.5268 101.987C-11.51 101.908 -11.4763 101.829 -11.4595 101.75L-11.3248 101.276L-11.2911 101.308C-11.2238 101.134 -11.1396 100.976 -11.0386 100.818C-10.904 100.613 -10.7693 100.407 -10.5841 100.233C-10.4326 100.091 -10.1801 99.9331 -9.96131 99.8067C-9.86031 99.7435 -9.75932 99.6803 -9.64148 99.6329C-9.52365 99.5855 -9.43948 99.5539 -9.43948 99.5539L-8.93449 99.4275C-8.85032 99.4117 -8.78299 99.3801 -8.69882 99.3643L5.2054 95.8566L1.33376 108.876C1.31693 108.955 1.28326 109.034 1.26643 109.113L1.13176 109.571Z" fill="white"/>
<path d="M-15.3995 116.113C-15.7025 116.113 -16.0055 116.002 -16.2412 115.781C-16.5442 115.497 -16.6452 115.086 -16.5442 114.707L-12.6725 101.687C-12.6725 101.671 -12.622 101.529 -12.622 101.513L-12.4705 100.976C-12.42 100.834 -12.3527 100.707 -12.2685 100.597C-12.2012 100.47 -12.1339 100.36 -12.0665 100.249C-11.8982 99.9648 -11.6962 99.712 -11.4774 99.4907C-11.4605 99.4749 -11.4437 99.4591 -11.4437 99.4433C-11.2417 99.2537 -10.9724 99.0799 -10.602 98.8587C-10.4169 98.7481 -10.299 98.6849 -10.1812 98.6375L-10.0634 98.5743C-9.97921 98.5269 -9.89504 98.4953 -9.81088 98.4795L-9.30588 98.3531C-9.15439 98.3057 -9.07022 98.2899 -8.96922 98.2741L4.834 94.7822C5.238 94.6874 5.67566 94.798 5.97866 95.0666C6.28165 95.351 6.38265 95.7618 6.28165 96.141L2.41002 109.161C2.41002 109.176 2.35952 109.319 2.35952 109.334L2.19119 109.872C2.14069 110.014 2.07336 110.14 1.98919 110.251C1.92186 110.377 1.85452 110.488 1.78719 110.598C1.61886 110.883 1.41686 111.136 1.19803 111.341C1.1812 111.357 1.16436 111.373 1.14753 111.389C0.945533 111.562 0.693035 111.752 0.305872 111.973C0.120706 112.084 0.00287408 112.147 -0.114958 112.21L-0.182293 112.289C-0.266459 112.337 -0.350624 112.368 -0.43479 112.384L-0.939788 112.51C-1.09129 112.558 -1.17545 112.574 -1.27645 112.589L-15.0797 116.081C-15.1807 116.097 -15.2817 116.113 -15.3995 116.113ZM-10.5515 102.177L-10.3664 102.224L-13.6993 113.443L-1.79828 110.44L-1.24278 111.452L-1.54578 110.377L-0.939788 110.156C-0.619957 109.966 -0.48529 109.887 -0.451623 109.856L-0.43479 109.84C-0.350624 109.761 -0.266458 109.65 -0.165459 109.492C-0.0812931 109.366 -0.0307924 109.255 0.0197071 109.145C0.0365403 109.097 0.0533719 109.066 0.0870382 109.018L0.154373 108.813L0.238537 108.829C0.289037 108.781 0.322703 108.734 0.373203 108.702L0.188037 108.655L3.52101 97.4367L-9.23855 100.707C-9.57521 100.897 -9.69305 100.992 -9.72671 101.023L-9.74355 101.039C-9.82771 101.118 -9.91188 101.229 -10.0129 101.387C-10.097 101.513 -10.1475 101.624 -10.198 101.734C-10.2149 101.782 -10.2317 101.813 -10.2654 101.861L-10.3327 102.066L-10.4169 102.05C-10.4505 102.098 -10.501 102.145 -10.5515 102.177Z" fill="white"/>
<path d="M0.390941 111.736C0.0879433 111.736 -0.215054 111.626 -0.450719 111.404C-0.905215 110.978 -0.905215 110.267 -0.450719 109.84C0.424607 109.018 0.289942 107.723 0.12161 107.012C-0.198221 105.621 -1.09038 104.168 -2.40337 102.919C-3.71636 101.687 -5.24818 100.818 -6.7295 100.518C-7.48699 100.36 -8.86732 100.218 -9.74264 101.039C-10.214 101.466 -10.9546 101.466 -11.4091 101.039C-11.8636 100.613 -11.8636 99.9016 -11.4091 99.475C-10.1635 98.3215 -8.32865 97.9265 -6.20767 98.3689C-4.28869 98.7797 -2.33604 99.8384 -0.72005 101.371C0.895937 102.904 2.02376 104.752 2.42776 106.554C2.88225 108.544 2.44459 110.267 1.19893 111.42C0.980102 111.626 0.693938 111.736 0.390941 111.736Z" fill="white"/>
<path d="M248.477 73.736L232.957 89.7419L242.249 90.6583L237.956 101.892L253.426 86.1393L244.336 85.2545L248.477 73.736Z" fill="white"/>
<path d="M237.956 102.998C237.754 102.998 237.535 102.951 237.35 102.84C236.862 102.572 236.66 102.019 236.845 101.529L240.633 91.622L232.839 90.8477C232.401 90.8003 232.014 90.5317 231.863 90.1367C231.711 89.7417 231.795 89.3151 232.098 88.9991L247.619 72.9932C247.989 72.5982 248.612 72.5192 249.083 72.7878C249.571 73.0564 249.79 73.5936 249.605 74.0992L245.935 84.3063L253.561 85.0648C253.998 85.1122 254.385 85.3808 254.537 85.7758C254.688 86.1708 254.604 86.6132 254.301 86.9134L238.832 102.651C238.596 102.872 238.276 102.998 237.956 102.998ZM235.398 88.8727L242.367 89.5679C242.72 89.5995 243.057 89.7891 243.242 90.0735C243.427 90.3579 243.478 90.7213 243.36 91.0373L241.037 97.1363L250.985 87.0082L244.235 86.3446C243.882 86.313 243.562 86.1234 243.36 85.839C243.158 85.5546 243.124 85.207 243.242 84.891L245.582 78.3812L235.398 88.8727Z" fill="white"/>
<path d="M101.104 276.156C101.104 276.156 97.2656 273.991 91.6938 270.973C85.8863 267.829 85.6002 262.899 88.142 260.071C90.9868 256.879 95.3634 258.049 98.1914 260.561C99.9589 257.29 103.645 254.809 107.466 256.911C110.884 258.775 112.399 263.5 108.072 268.303C103.932 272.901 101.104 276.156 101.104 276.156Z" fill="white"/>
<path d="M101.103 277.262C100.901 277.262 100.683 277.215 100.497 277.104C100.464 277.088 96.609 274.908 91.1214 271.937C88.0409 270.278 86.0714 267.924 85.5832 265.301C85.1792 263.168 85.7852 261.003 87.2666 259.36C88.529 257.938 90.1787 257.148 92.0304 257.037C93.9662 256.927 96.0535 257.59 97.9051 258.87C99.1845 257.085 100.901 255.789 102.77 255.284C104.554 254.794 106.389 255.015 108.089 255.947C110.059 257.022 111.422 258.87 111.809 261.003C112.281 263.626 111.288 266.455 108.981 269.014C104.874 273.549 102.046 276.82 102.012 276.851C101.794 277.12 101.44 277.262 101.103 277.262ZM92.4175 259.25C92.3334 259.25 92.2323 259.25 92.1482 259.25C90.9362 259.313 89.8925 259.834 89.0509 260.782C88.0241 261.92 87.6032 263.437 87.8894 264.922C88.2597 266.881 89.8252 268.682 92.2829 270.025C96.2723 272.174 99.3865 273.912 100.834 274.718C101.895 273.502 104.218 270.863 107.18 267.576C109.015 265.538 109.84 263.342 109.47 261.383C109.2 259.897 108.258 258.618 106.877 257.859C105.733 257.227 104.571 257.085 103.41 257.401C101.794 257.843 100.245 259.218 99.2518 261.051C99.0835 261.367 98.7636 261.572 98.4101 261.635C98.0398 261.699 97.6695 261.588 97.4001 261.351C95.8683 260.024 94.0335 259.25 92.4175 259.25Z" fill="white"/>
<path d="M6.85439 46.6856C6.78705 46.6856 6.71972 46.6856 6.65239 46.6698C1.85493 45.8956 -2.33654 43.4149 -5.14768 39.686C-7.95882 35.9571 -9.05298 31.4223 -8.22816 26.9034C-8.11032 26.303 -7.50433 25.8922 -6.86466 26.0028C-6.225 26.1134 -5.78734 26.6822 -5.90517 27.2826C-6.629 31.2011 -5.66951 35.1512 -3.21186 38.4061C-0.754216 41.661 2.88175 43.8099 7.07322 44.4893C7.71288 44.5999 8.15054 45.1687 8.03271 45.7692C7.91488 46.3064 7.40988 46.6856 6.85439 46.6856Z" fill="white"/>
<path d="M299.464 21.9578C298.976 21.9578 298.504 21.6576 298.353 21.1993C298.151 20.6147 298.487 19.9985 299.093 19.7931C301.534 19.0347 303.504 17.423 304.648 15.2742C305.793 13.1253 305.978 10.6762 305.17 8.38514C304.362 6.09407 302.645 4.24542 300.356 3.17098C298.067 2.09655 295.457 1.92274 293.017 2.68117C292.394 2.87077 291.737 2.55476 291.535 1.98595C291.333 1.40133 291.67 0.785109 292.276 0.579702C295.306 -0.368327 298.555 -0.14712 301.416 1.19592C304.278 2.53896 306.399 4.84583 307.409 7.68992C308.419 10.534 308.183 13.5835 306.752 16.2696C305.322 18.9557 302.864 20.9465 299.834 21.8946C299.716 21.942 299.582 21.9578 299.464 21.9578Z" fill="white"/>
<path d="M129.923 23.443C129.62 23.443 129.333 23.3324 129.098 23.127C128.626 22.7004 128.626 22.0052 129.081 21.5628L146.991 4.24543C147.446 3.80302 148.187 3.80302 148.658 4.22963C149.129 4.65625 149.129 5.35147 148.675 5.79388L130.764 23.1112C130.545 23.3166 130.226 23.443 129.923 23.443Z" fill="white"/>
<path d="M28.3686 300.583C28.1666 300.157 28.0319 299.224 28.0319 299.224L26.2812 276.883L43.1313 292.746L43.0976 292.762C43.4679 293.078 43.8046 293.441 44.0066 293.868C45.2691 296.459 42.7946 300.078 38.4685 301.926C34.1592 303.775 29.6311 303.175 28.3686 300.583Z" fill="white"/>
<path d="M33.5015 304.123C30.6398 304.123 28.2663 303.048 27.29 301.042C27.0207 300.504 26.886 299.62 26.8523 299.367L25.0849 276.978C25.0512 276.519 25.3205 276.077 25.775 275.887C26.2295 275.698 26.7513 275.793 27.1048 276.109L43.9549 291.972C44.0222 292.035 44.0727 292.099 44.1232 292.178C44.544 292.573 44.847 292.983 45.0659 293.41C46.6314 296.602 43.938 300.789 38.9554 302.938C37.1038 303.728 35.2184 304.123 33.5015 304.123ZM29.4447 300.125C30.421 302.132 34.3263 302.495 37.9959 300.915C41.6487 299.351 43.9212 296.333 42.9449 294.326C42.827 294.089 42.6251 293.852 42.3052 293.584C42.2211 293.505 42.1369 293.41 42.0696 293.315L27.6772 279.774L29.209 299.146C29.2595 299.446 29.3605 299.967 29.4447 300.125Z" fill="white"/>
<path d="M33.9029 292.525C38.229 290.677 42.7403 291.277 44.0196 293.868C45.2821 296.46 42.8077 300.062 38.4815 301.927C34.1554 303.775 29.6441 303.175 28.3648 300.583C27.1023 297.992 29.5768 294.374 33.9029 292.525Z" fill="white"/>
<path d="M33.5162 304.107C33.0448 304.107 32.5735 304.075 32.119 304.012C29.796 303.712 28.0959 302.653 27.3047 301.042C26.5135 299.43 26.7829 297.534 28.0622 295.67C29.2237 293.979 31.1258 292.494 33.4152 291.514C38.3978 289.381 43.5319 290.203 45.0806 293.41C45.8717 295.022 45.6024 296.918 44.3231 298.782C43.1616 300.473 41.2594 301.958 38.9701 302.938C37.169 303.696 35.2836 304.107 33.5162 304.107ZM38.8859 292.557C37.5056 292.557 35.9233 292.873 34.3915 293.536C32.5062 294.342 30.9575 295.527 30.0317 296.886C29.2069 298.087 29.0049 299.24 29.4425 300.141C29.8802 301.042 30.9407 301.642 32.4388 301.848C34.1221 302.069 36.0916 301.753 37.9769 300.931C39.8623 300.125 41.4109 298.94 42.3367 297.581C43.1616 296.396 43.3636 295.243 42.9259 294.342C42.3704 293.173 40.8049 292.557 38.8859 292.557Z" fill="white"/>
<path d="M360.619 296.096C360.232 296.096 359.845 295.906 359.626 295.575L345.705 274.955C345.351 274.434 345.52 273.754 346.075 273.422C346.631 273.091 347.354 273.249 347.708 273.77L361.629 294.39C361.982 294.911 361.814 295.59 361.259 295.922C361.057 296.049 360.838 296.096 360.619 296.096Z" fill="white"/>
<path d="M299.447 291.388C298.959 291.388 298.487 291.087 298.336 290.629C298.134 290.045 298.47 289.428 299.076 289.239C304.497 287.548 307.443 282.018 305.641 276.93C304.766 274.465 302.914 272.459 300.44 271.305C297.965 270.136 295.154 269.946 292.528 270.768C291.906 270.958 291.249 270.642 291.047 270.073C290.845 269.488 291.182 268.872 291.788 268.682C295.003 267.671 298.454 267.908 301.5 269.33C304.547 270.752 306.803 273.217 307.88 276.235C308.958 279.269 308.705 282.492 307.19 285.352C305.675 288.212 303.049 290.329 299.834 291.34C299.699 291.372 299.565 291.388 299.447 291.388Z" fill="white"/>
<path d="M129.887 292.209C129.584 292.209 129.298 292.099 129.063 291.893C128.591 291.466 128.591 290.771 129.046 290.329L147.024 272.948C147.478 272.506 148.219 272.49 148.69 272.933C149.162 273.359 149.161 274.054 148.707 274.497L130.729 291.877C130.493 292.099 130.19 292.209 129.887 292.209Z" fill="white"/>
<path d="M197.59 48.2656C197.254 48.2656 196.934 48.1392 196.698 47.8706L192.911 43.6835C192.49 43.2253 192.557 42.5142 193.045 42.1192C193.55 41.7242 194.291 41.7874 194.712 42.2456L198.499 46.4328C198.92 46.891 198.853 47.602 198.364 47.997C198.129 48.1708 197.86 48.2656 197.59 48.2656Z" fill="white"/>
<path d="M185.051 34.4086C184.714 34.4086 184.395 34.2821 184.159 34.0135L180.371 29.8264C179.951 29.3682 180.018 28.6572 180.506 28.2622C180.994 27.8671 181.752 27.9304 182.173 28.3886L185.96 32.5757C186.381 33.0339 186.314 33.7449 185.825 34.1399C185.59 34.3296 185.32 34.4086 185.051 34.4086Z" fill="white"/>
<path d="M185.184 50.3829C185.049 50.3829 184.915 50.3671 184.78 50.3197C184.174 50.1143 183.854 49.4822 184.073 48.9134L186.042 43.7467C186.261 43.1778 186.935 42.8776 187.54 43.083C188.146 43.2884 188.466 43.9205 188.247 44.4893L186.278 49.656C186.127 50.1143 185.672 50.3829 185.184 50.3829Z" fill="white"/>
<path d="M191.699 33.2709C191.565 33.2709 191.43 33.2551 191.295 33.2077C190.689 33.0023 190.37 32.3703 190.588 31.8015L192.558 26.6347C192.777 26.0659 193.45 25.7657 194.056 25.9711C194.662 26.1765 194.982 26.8085 194.763 27.3773L192.794 32.5441C192.625 32.9865 192.171 33.2709 191.699 33.2709Z" fill="white"/>
<path d="M177.021 41.3765C176.466 41.3765 175.961 40.9973 175.86 40.4759C175.742 39.8755 176.163 39.2909 176.802 39.1961L182.559 38.2164C183.199 38.1058 183.822 38.5008 183.923 39.1013C184.041 39.7017 183.62 40.2863 182.98 40.3811L177.223 41.3607C177.156 41.3607 177.088 41.3765 177.021 41.3765Z" fill="white"/>
<path d="M196.076 38.1058C195.52 38.1058 195.015 37.7266 194.914 37.2052C194.796 36.6047 195.217 36.0201 195.857 35.9253L201.614 34.9457C202.254 34.8351 202.876 35.2301 202.977 35.8305C203.095 36.4309 202.674 37.0155 202.035 37.1103L196.278 38.09C196.21 38.1058 196.143 38.1058 196.076 38.1058Z" fill="white"/>
<path d="M280.274 191.165C279.853 191.165 279.449 190.96 279.23 190.596L270.948 176.36C270.629 175.823 270.847 175.159 271.42 174.859C271.992 174.559 272.699 174.764 273.019 175.301L280.745 188.558L294.868 181.306C295.441 181.005 296.148 181.211 296.468 181.748C296.787 182.285 296.569 182.949 295.996 183.249L280.83 191.023C280.661 191.118 280.459 191.165 280.274 191.165Z" fill="white"/>
<path d="M236.374 268.714C236.357 268.714 236.357 268.714 236.374 268.714C235.717 268.714 235.195 268.208 235.195 267.592L235.33 253.861C235.33 253.482 235.532 253.135 235.869 252.945C236.205 252.74 236.626 252.724 236.996 252.866L247.568 257.338L247.686 245.298C247.686 244.697 248.224 244.207 248.864 244.207C248.864 244.207 248.864 244.207 248.881 244.207C249.537 244.207 250.059 244.713 250.042 245.329L249.908 259.076C249.908 259.455 249.706 259.802 249.369 259.992C249.032 260.197 248.611 260.229 248.241 260.071L237.67 255.6L237.552 267.64C237.535 268.224 237.013 268.714 236.374 268.714Z" fill="white"/>
<path d="M293.086 113.632C292.817 113.632 292.565 113.553 292.346 113.395L283.222 106.538C282.717 106.159 282.633 105.463 283.037 104.989C283.441 104.515 284.182 104.436 284.687 104.815L292.884 110.993L299.416 103.33C299.618 103.093 299.904 102.951 300.207 102.919C300.51 102.888 300.83 102.967 301.065 103.156L309.263 109.334L315.794 101.671C316.198 101.197 316.939 101.118 317.444 101.497C317.949 101.877 318.033 102.572 317.629 103.046L310.357 111.578C310.155 111.799 309.869 111.957 309.566 111.989C309.263 112.021 308.943 111.941 308.708 111.752L300.51 105.574L293.979 113.237C293.777 113.474 293.49 113.616 293.187 113.648C293.171 113.632 293.12 113.632 293.086 113.632Z" fill="white"/>
<path d="M303.067 235.422C302.629 235.422 302.225 235.201 302.007 234.806L297.125 225.705L287.412 230.287C286.823 230.556 286.116 230.334 285.83 229.797L280.948 220.68L271.235 225.262C270.646 225.531 269.939 225.326 269.653 224.773L264.771 215.672L255.059 220.254C254.47 220.522 253.763 220.317 253.476 219.764C253.19 219.227 253.409 218.547 253.998 218.279L264.755 213.191C265.327 212.906 266.051 213.128 266.337 213.681L271.219 222.798L280.931 218.215C281.504 217.931 282.228 218.152 282.514 218.705L287.395 227.806L297.108 223.224C297.697 222.94 298.387 223.161 298.69 223.714L304.111 233.81C304.397 234.348 304.178 235.027 303.589 235.296C303.437 235.39 303.252 235.422 303.067 235.422Z" fill="white"/>
<path d="M41.5658 252.139C40.6568 252.139 39.7478 251.95 38.8893 251.57C37.3575 250.891 36.2128 249.706 35.6236 248.221C35.4048 247.652 35.7246 247.004 36.3306 246.799C36.9366 246.593 37.61 246.893 37.8456 247.462C38.1991 248.394 38.923 249.137 39.8824 249.564C40.8419 249.99 41.9193 250.038 42.9124 249.69C44.9661 248.995 46.0266 246.862 45.2859 244.934C45.0671 244.365 45.3869 243.718 45.9929 243.512C46.5989 243.307 47.2722 243.607 47.5079 244.176C48.6862 247.257 46.9861 250.654 43.7204 251.76C43.0134 252.013 42.2896 252.139 41.5658 252.139Z" fill="white"/>
<path d="M46.3943 245.661C45.9061 245.661 45.4516 245.377 45.2833 244.934C44.1891 242.09 41.7651 240.842 39.9135 240.273C37.3043 239.483 34.2407 239.61 31.2949 240.605C30.6889 240.81 30.0156 240.51 29.7799 239.941C29.5611 239.373 29.8809 238.74 30.4869 238.519C33.9209 237.35 37.5232 237.224 40.6373 238.156C43.9534 239.151 46.3943 241.284 47.5053 244.16C47.7241 244.729 47.4043 245.377 46.7983 245.582C46.6636 245.645 46.5289 245.661 46.3943 245.661Z" fill="white"/>
<path d="M36.7311 248.947C36.243 248.947 35.7885 248.663 35.6201 248.221C34.5091 245.345 34.93 242.232 36.7984 239.483C38.5491 236.907 41.4107 234.838 44.8447 233.684C45.4507 233.479 46.124 233.779 46.3597 234.348C46.5785 234.917 46.2587 235.564 45.6527 235.77C42.7069 236.765 40.2661 238.519 38.7848 240.684C37.7411 242.216 36.7311 244.634 37.8253 247.478C38.0441 248.047 37.7243 248.695 37.1183 248.9C37.0004 248.916 36.8658 248.947 36.7311 248.947Z" fill="white"/>
<path d="M45.2503 235.817C44.7621 235.817 44.3076 235.533 44.1393 235.09C43.9204 234.522 44.2403 233.89 44.8463 233.668C46.5632 233.084 48.3644 232.815 50.1656 232.847C50.822 232.863 51.327 233.368 51.327 233.969C51.3102 234.585 50.7884 235.059 50.1319 235.059C48.6169 235.027 47.0851 235.264 45.6543 235.754C45.5196 235.801 45.3849 235.817 45.2503 235.817Z" fill="white"/>
<path d="M27.2064 257.005C26.2974 257.005 25.3884 256.816 24.5299 256.437C22.9981 255.757 21.8534 254.572 21.2643 253.087C21.0454 252.518 21.3653 251.87 21.9713 251.665C22.5773 251.46 23.2506 251.76 23.4863 252.329C23.8397 253.261 24.5636 254.003 25.5231 254.43C26.4826 254.857 27.5599 254.904 28.553 254.556C30.6067 253.861 31.6672 251.728 30.9265 249.8C30.7077 249.232 31.0275 248.6 31.6335 248.378C32.2395 248.173 32.9297 248.473 33.1485 249.042C34.3268 252.123 32.6267 255.52 29.361 256.626C28.654 256.879 27.9302 257.005 27.2064 257.005Z" fill="white"/>
<path d="M32.0349 250.543C31.5467 250.543 31.0922 250.259 30.9239 249.817C29.8297 246.973 27.4058 245.724 25.5541 245.155C22.945 244.365 19.8813 244.492 16.9355 245.487C16.3295 245.693 15.6562 245.392 15.4205 244.824C15.2017 244.255 15.5215 243.623 16.1275 243.402C19.5615 242.232 23.1638 242.106 26.2779 243.038C29.5941 244.034 32.0349 246.167 33.1459 249.042C33.3647 249.611 33.0449 250.259 32.4389 250.464C32.3042 250.512 32.1695 250.543 32.0349 250.543Z" fill="white"/>
<path d="M22.3756 253.814C21.8875 253.814 21.433 253.53 21.2647 253.087C20.1537 250.212 20.5745 247.099 22.443 244.35C24.1936 241.774 27.0553 239.704 30.4892 238.551C31.0952 238.345 31.7686 238.646 32.0042 239.214C32.2231 239.783 31.9032 240.431 31.2972 240.636C28.3514 241.632 25.9106 243.386 24.4293 245.55C23.3856 247.083 22.3756 249.501 23.4698 252.345C23.6886 252.913 23.3688 253.561 22.7628 253.767C22.645 253.798 22.5103 253.814 22.3756 253.814Z" fill="white"/>
<path d="M12.2591 247.921C11.9224 247.921 11.6026 247.794 11.3669 247.541C10.9461 247.083 10.9966 246.388 11.4847 245.977C12.8651 244.855 14.4305 244.002 16.1475 243.417C16.7535 243.212 17.4437 243.512 17.6625 244.081C17.8813 244.65 17.5615 245.282 16.9555 245.503C15.5247 245.993 14.2117 246.72 13.0334 247.652C12.7977 247.826 12.5284 247.921 12.2591 247.921Z" fill="white"/>
<path d="M207.102 107.912C206.867 107.912 206.648 107.881 206.412 107.818C205.2 107.454 204.527 106.238 204.914 105.1C205.301 103.962 206.581 103.33 207.793 103.694C209.005 104.057 209.678 105.274 209.291 106.411C208.988 107.328 208.079 107.912 207.102 107.912ZM207.119 105.7C207.102 105.7 207.069 105.716 207.069 105.732L206.783 106.759L207.119 105.7Z" fill="white"/>
<path d="M203.147 261.477C202.912 261.477 202.676 261.446 202.44 261.367C201.211 261.003 200.521 259.755 200.908 258.602C201.094 258.033 201.514 257.575 202.07 257.306C202.625 257.037 203.265 256.99 203.854 257.164C204.443 257.338 204.932 257.733 205.235 258.254C205.521 258.775 205.571 259.376 205.386 259.929C205.201 260.498 204.78 260.956 204.225 261.225C203.888 261.398 203.518 261.477 203.147 261.477ZM203.147 259.265L202.794 260.324L203.147 259.265Z" fill="white"/>
<path d="M82.942 88.1777C82.7063 88.1777 82.4706 88.1461 82.2518 88.0829C81.6626 87.9091 81.1913 87.5298 80.9051 87.0242C80.619 86.5186 80.5685 85.934 80.7536 85.381C80.9388 84.828 81.3428 84.3855 81.8815 84.1169C82.4201 83.8483 83.043 83.8009 83.6321 83.9747C84.2213 84.1485 84.6926 84.5278 84.9788 85.0334C85.2649 85.539 85.3154 86.1236 85.1303 86.6766C84.9451 87.2296 84.5411 87.6721 84.0025 87.9407C83.6658 88.0987 83.2955 88.1777 82.942 88.1777ZM82.942 85.9656C82.9083 85.9656 82.8915 85.9814 82.8746 86.013L82.9588 85.9814C82.942 85.9656 82.942 85.9656 82.942 85.9656Z" fill="white"/>
<path d="M364.106 118.83H344.108C343.452 118.83 342.93 118.341 342.93 117.724C342.93 117.108 343.452 116.618 344.108 116.618H364.106C364.762 116.618 365.284 117.108 365.284 117.724C365.284 118.341 364.746 118.83 364.106 118.83Z" fill="white"/>
<path d="M354.104 128.216C353.448 128.216 352.926 127.726 352.926 127.11V108.339C352.926 107.723 353.448 107.233 354.104 107.233C354.761 107.233 355.282 107.723 355.282 108.339V127.11C355.282 127.726 354.744 128.216 354.104 128.216Z" fill="white"/>
<path d="M182.879 245.724H163.319C162.662 245.724 162.141 245.234 162.141 244.618C162.141 244.002 162.662 243.512 163.319 243.512H182.879C183.536 243.512 184.057 244.002 184.057 244.618C184.057 245.219 183.536 245.724 182.879 245.724Z" fill="white"/>
<path d="M173.1 254.904C172.444 254.904 171.922 254.414 171.922 253.798V235.438C171.922 234.822 172.444 234.332 173.1 234.332C173.757 234.332 174.279 234.822 174.279 235.438V253.798C174.279 254.414 173.74 254.904 173.1 254.904Z" fill="white"/>
<path d="M178.065 84.6857C177.762 84.6857 177.459 84.5751 177.224 84.3539C176.769 83.9273 176.769 83.2162 177.224 82.7896L191.212 69.6594C191.667 69.2328 192.424 69.2328 192.879 69.6594C193.333 70.0861 193.333 70.7971 192.879 71.2237L178.89 84.3539C178.671 84.5751 178.368 84.6857 178.065 84.6857Z" fill="white"/>
<path d="M192.054 84.6857C191.751 84.6857 191.448 84.5751 191.212 84.3539L177.224 71.2237C176.769 70.7971 176.769 70.0861 177.224 69.6594C177.678 69.2328 178.436 69.2328 178.89 69.6594L192.879 82.7896C193.333 83.2162 193.333 83.9273 192.879 84.3539C192.66 84.5751 192.357 84.6857 192.054 84.6857Z" fill="white"/>
<path d="M75.5013 55.439C75.1815 55.439 74.8953 55.3284 74.6597 55.1072L63.4151 44.5524C62.9606 44.1258 62.9606 43.4148 63.4151 42.9882L74.6597 32.4335C75.0973 32.0227 75.8885 32.0227 76.3261 32.4335L87.5707 42.9882C88.0252 43.4148 88.0252 44.1258 87.5707 44.5524L76.3261 55.1072C76.1073 55.3126 75.8043 55.439 75.5013 55.439ZM65.9064 43.7624L75.4845 52.7529L85.0626 43.7624L75.5013 34.7719L65.9064 43.7624Z" fill="white"/>
</g>
</svg>
